<?xml version="1.0" encoding="utf-8"?>
<!-- Generator: Adobe Illustrator 16.2.0, SVG Export Plug-In . SVG Version: 6.00 Build 0)  -->
<!DOCTYPE svg PUBLIC "-//W3C//DTD SVG 1.1//EN" "http://www.w3.org/Graphics/SVG/1.1/DTD/svg11.dtd">
<svg version="1.1" id="图层_1" xmlns="http://www.w3.org/2000/svg" xmlns:xlink="http://www.w3.org/1999/xlink" x="0px" y="0px"
	 width="135px" height="145px" viewBox="32.5 26.5 135 145" enable-background="new 32.5 26.5 135 145" xml:space="preserve">
<path fill="#FFFFFF" d="M99.912,36.404c10.387,0,19.801,4.16,26.62,10.864c6.805,6.706,11.018,15.957,11.018,26.179
	c0,10.234-4.214,19.494-11.018,26.199c-1.719,1.681-3.59,3.199-5.59,4.534c7.949,2.957,15.091,7.534,20.998,13.344
	c10.773,10.576,17.435,25.185,17.435,41.289c0,2.776-2.289,5.046-5.122,5.046c-2.832,0-5.12-2.269-5.12-5.046
	c0-13.354-5.513-25.434-14.405-34.162c-8.883-8.731-21.174-14.143-34.751-14.153h-0.132c-13.575,0.013-25.866,5.42-34.762,14.153
	c-8.893,8.727-14.391,20.805-14.391,34.162c0,2.776-2.29,5.046-5.123,5.046c-2.831,0-5.123-2.269-5.123-5.046
	c0-16.104,6.659-30.714,17.435-41.289c5.982-5.877,13.138-10.425,20.999-13.344c-2.003-1.33-3.875-2.849-5.591-4.534
	c-6.805-6.706-11.02-15.966-11.02-26.199c0-10.221,4.214-19.473,11.02-26.179c6.809-6.705,16.224-10.864,26.615-10.864H99.912z
	 M119.271,54.396c-4.956-4.868-11.793-7.901-19.359-7.901s-14.415,3.031-19.37,7.901c-4.957,4.878-8.021,11.62-8.021,19.051
	c0,7.458,3.061,14.184,8.021,19.072c4.947,4.856,11.771,7.878,19.303,7.89h0.117c7.545-0.012,14.376-3.031,19.31-7.89
	c4.956-4.887,8.033-11.615,8.033-19.072C127.305,66.013,124.229,59.273,119.271,54.396L119.271,54.396z"/>
</svg>
