<?xml version="1.0" encoding="utf-8"?>
<!-- Generator: Adobe Illustrator 22.0.0, SVG Export Plug-In . SVG Version: 6.00 Build 0)  -->
<svg version="1.1" id="图层_1" xmlns="http://www.w3.org/2000/svg" xmlns:xlink="http://www.w3.org/1999/xlink" x="0px" y="0px"
	 viewBox="0 0 200 200" style="enable-background:new 0 0 200 200;" xml:space="preserve">
<style type="text/css">
	.st0{fill:#FFFFFF;}
</style>
<path class="st0" d="M173.7,12.5H26.3c-7.5,0-13.7,6.2-13.7,13.7v147.4c0,7.5,6.2,13.7,13.7,13.7h147.4c7.5,0,13.7-6.2,13.7-13.7
	V26.3C187.4,18.7,181.2,12.5,173.7,12.5z M154.3,110.9h-17.6V177h-24.2v-66.1H94.8v-22h17.6V62.5c0-11,9.7-16.4,15.4-17.6
	c7-1.4,27.5-1.1,27.5-1.1V68H140c-4.4,0-4.4,4.4-4.4,4.4v16.5h20.9L154.3,110.9L154.3,110.9z"/>
</svg>
