<?xml version="1.0" encoding="utf-8"?>
<!-- Generator: Adobe Illustrator 16.2.0, SVG Export Plug-In . SVG Version: 6.00 Build 0)  -->
<!DOCTYPE svg PUBLIC "-//W3C//DTD SVG 1.1//EN" "http://www.w3.org/Graphics/SVG/1.1/DTD/svg11.dtd">
<svg version="1.1" id="图层_1" xmlns="http://www.w3.org/2000/svg" xmlns:xlink="http://www.w3.org/1999/xlink" x="0px" y="0px"
	 width="200px" height="200px" viewBox="0 0 200 200" enable-background="new 0 0 200 200" xml:space="preserve">
<path fill="#FFFFFF" d="M117.393,151.532H85.94c-1.905,0-3.812-1.906-3.812-3.812s1.907-3.812,3.812-3.812h31.453
	c1.906,0,3.811,1.904,3.811,3.812S119.299,151.532,117.393,151.532z"/>
<path fill="#FFFFFF" d="M117.393,153.331H85.94c-2.884,0-5.61-2.727-5.61-5.61s2.726-5.61,5.61-5.61h31.453
	c2.884,0,5.609,2.727,5.609,5.61S120.276,153.331,117.393,153.331z M85.94,145.708c-0.904,0-2.013,1.109-2.013,2.013
	s1.117,2.013,2.013,2.013h31.453c0.921,0,2.012-1.092,2.012-2.013s-1.09-2.013-2.012-2.013H85.94z"/>
<path fill="#FFFFFF" d="M141.215,185.835H61.172c-10.482,0-20.002-8.576-20.002-20.011V34.326
	c0.953-10.483,9.529-20.011,20.01-20.011h80.034c10.482,0,20.01,8.576,20.01,20.011v131.498
	C160.273,176.308,151.695,185.835,141.215,185.835L141.215,185.835z M61.172,22.89c-6.671,0-11.434,5.718-11.434,11.434v131.5
	c0,6.67,5.718,11.435,11.434,11.435h80.042c6.671,0,11.434-5.719,11.434-11.435V34.326c0-6.672-5.719-11.435-11.434-11.435
	L61.172,22.89z"/>
<path fill="#FFFFFF" d="M141.215,187.634H61.172c-5.564,0-11.1-2.269-15.189-6.224c-4.245-4.073-6.638-9.706-6.622-15.59V34.17
	c0.561-5.643,3.002-10.935,6.931-15.023c4.133-4.271,9.414-6.624,14.872-6.624h80.05c5.563,0,11.1,2.269,15.189,6.224
	c4.246,4.073,6.639,9.706,6.623,15.589v131.652c-0.562,5.644-3.004,10.936-6.936,15.024
	C151.953,185.281,146.672,187.634,141.215,187.634z M42.969,34.41v131.415c-0.009,4.903,1.987,9.598,5.526,12.991
	c3.422,3.313,8.046,5.211,12.686,5.211h80.034c4.473,0,8.838-1.963,12.285-5.526c3.343-3.477,5.429-7.97,5.926-12.768V34.326
	c0.01-4.904-1.987-9.598-5.526-12.991c-3.421-3.312-8.046-5.211-12.685-5.211H61.172c-4.473,0-8.836,1.963-12.286,5.526
	C45.549,25.126,43.466,29.617,42.969,34.41z M141.215,179.058H61.172c-6.396,0-13.233-5.318-13.233-13.233V34.326
	c0-6.396,5.318-13.233,13.233-13.233h80.042c6.395,0,13.232,5.318,13.232,13.233v131.498
	C154.447,172.216,149.131,179.058,141.215,179.058z M61.172,24.688c-5.764,0-9.635,4.982-9.635,9.635v131.5
	c0,5.765,4.982,9.636,9.635,9.636h80.042c5.764,0,9.635-4.982,9.635-9.636V34.326c0-5.764-4.982-9.636-9.635-9.636L61.172,24.688z"
	/>
</svg>
