<?xml version="1.0" encoding="utf-8"?>
<!-- Generator: Adobe Illustrator 22.0.0, SVG Export Plug-In . SVG Version: 6.00 Build 0)  -->
<svg version="1.1" id="图层_1" xmlns="http://www.w3.org/2000/svg" xmlns:xlink="http://www.w3.org/1999/xlink" x="0px" y="0px"
	 viewBox="0 0 200 200" style="enable-background:new 0 0 200 200;" xml:space="preserve">
<style type="text/css">
	.st0{fill:#FFFFFF;}
</style>
<path class="st0" d="M100,0C44.8,0,0,44.8,0,100s44.8,100,100,100s100-44.8,100-100S155.2,0,100,0z M109.7,133.6
	c-9.1-0.7-12.9-5.2-20-9.5c-3.9,20.5-8.7,40.2-22.9,50.5c-4.4-31.1,6.4-54.4,11.4-79.1c-8.5-14.4,1-43.4,19.1-36.2
	c22.2,8.8-19.2,53.5,8.6,59.1c29,5.8,40.9-50.4,22.9-68.6c-26-26.4-75.7-0.6-69.6,37.2c1.5,9.2,11,12,3.8,24.8
	C46.3,108,41.4,94.9,42,77.4c1-28.7,25.7-48.7,50.5-51.5c31.3-3.5,60.8,11.5,64.8,41C161.9,100.2,143.2,136.2,109.7,133.6z"/>
</svg>
