<?xml version="1.0" encoding="utf-8"?>
<!-- Generator: Adobe Illustrator 22.0.0, SVG Export Plug-In . SVG Version: 6.00 Build 0)  -->
<svg version="1.1" id="Layer_1" xmlns="http://www.w3.org/2000/svg" xmlns:xlink="http://www.w3.org/1999/xlink" x="0px" y="0px"
	 viewBox="0 0 630 182" style="enable-background:new 0 0 630 182;" xml:space="preserve">
<g>
	<path d="M237.4,94.4c0-37.8-14.4-60.7-38.3-60.7c-24,0-38.3,22.9-38.3,60.7c0,37.8,14.4,60.7,38.3,60.7
		C223,155.1,237.4,132.2,237.4,94.4L237.4,94.4z M263.2,94.4c0,32.4-25.6,61.6-64.2,61.6c-38.6,0-64.2-29.2-64.2-61.6
		c0-32.4,25.6-61.6,64.2-61.6C237.6,32.8,263.2,62,263.2,94.4L263.2,94.4z"/>
	<path d="M112.9,67.1c0-16.8-15.1-31.8-48-31.8H17.5c-0.1,0-0.3,0.1-0.2,0.6c0.1,0.5,0.5,1,1.3,1.1c4.4,0.8,9,3.1,9,11.3l0,92.3
		c0,8.2-4.7,10.5-9,11.3c-0.7,0.1-1.1,0.6-1.3,1.1c-0.1,0.5,0.1,0.6,0.2,0.6h23.3h19.5c0.1,0,0.3-0.1,0.2-0.6
		c-0.1-0.5-0.5-1-1.3-1.1c-4.4-0.8-9-3.1-9-11.3l0-41.2v-0.9V36.2h10.9c19.5,0,29.1,11.2,29.1,30.7c0,18.7-6.9,28.2-20.8,30.8
		c-4.8,0.9-9.1,1.2-9.1,1.2s4.6,0.5,9.1,0.4C100,98.3,112.9,85.3,112.9,67.1L112.9,67.1z"/>
	<path d="M396.5,151.8c0.7,0.1,1.1,0.6,1.2,1.1c0.1,0.5-0.1,0.5-0.2,0.5H375h-9.4c0,0-11.3-23.4-15.7-32.6c-6-12.7-7.6-20-20-24.3
		c19-1,27.6-12,27.6-30.8c0-20.5-10.3-29.5-26.4-29.5h-12.9l0,59.9l0,44.4c0,8.2,4.7,10.5,9,11.3c0.7,0.1,1.1,0.6,1.3,1.1
		c0.1,0.5-0.1,0.6-0.2,0.6h-42.9c-0.1,0-0.3-0.1-0.2-0.6c0.1-0.5,0.5-1,1.3-1.1c4.4-0.8,9-3.1,9-11.3l0-92.3c0-8.2-4.7-10.5-9-11.3
		c-0.7-0.1-1.1-0.6-1.3-1.1c-0.1-0.5,0.1-0.6,0.2-0.6l19.8,0h29.9c30,0,44.9,13.3,44.9,30.1c0,30.6-44.9,31.5-44.9,31.5
		s25.5-0.6,35.5,19c6.5,12.8,13.3,25.8,13.3,25.8c2.8,5.5,6.3,8.2,9.8,9.5C394.7,151.4,395.6,151.7,396.5,151.8L396.5,151.8z"/>
	<path d="M528,153.7l-0.1-19.9v-0.2v-23.2c0-0.1,0.1-0.3,0.6-0.2c0.5,0.1,1,0.5,1.1,1.3c0.1,0.4,0.1,0.8,0.2,1.2
		c4.6,21.2,14.2,42.4,39.9,42.4c18.8,0,30.1-9.7,30.1-24.7c0-9.7-4.9-15.9-11.9-20.2c-3.5-2.1-7.5-3.8-11.7-5.4
		c-4.2-1.5-8.7-2.9-13.1-4.3c-18-5.7-34.4-12-34.4-32.8c0-20,16.9-35.1,38.2-35.1c8.1,0,14.3,1.7,19.1,3.5c2.5,0.9,4.6,1.8,6.4,2.4
		c1.8,0.7,3.5,1.2,5.1,1.2c3.8,0,5.3-1.7,6.1-3.5c0.1-0.3,0.2-0.7,0.4-1c0.1-0.3,0.2-0.4,0.2-0.5l0.3,0c0.1,0.2,0.2,0.6,0.3,1.7
		l2.2,22.7c0.1,0.9,0.1,1.6,0.1,2.1c0,0.2,0,0.3,0,0.4c-0.2-0.2-0.4-0.6-0.6-1.2c-7.6-16.8-21-26.9-39.7-26.9
		c-13.1,0-24.3,5.9-24.3,20.8c0,8.2,5.2,13.2,12.2,16.6c3.5,1.7,7.5,3.1,11.8,4.5c4.2,1.3,8.7,2.6,13.3,4
		c18.1,5.6,34.9,13.3,34.9,36.2c0,22.6-19,40.2-45.1,40.2c-8.5,0-14.8-2-19.8-4c-2.6-1-4.8-2.1-6.9-2.8c-2.1-0.8-4.1-1.4-6.2-1.4
		c-4.2,0-6.1,1.9-7.3,3.8c-0.3,0.4-0.5,0.8-0.7,1.2c-0.2,0.3-0.3,0.6-0.5,0.8L528,153.7L528,153.7z"/>
	<path d="M507.3,54.7c-0.2,0-26.3-18.7-39.5-18.7c0,4.3,0,47.5,0,47.5l0,46.8l0,5.1l0,5.1c0,4,1.1,6.7,2.9,8.4
		c1.7,1.7,4,2.5,6.2,2.9c0.7,0.1,1.1,0.6,1.3,1.1c0.1,0.5-0.1,0.6-0.2,0.6h-21.5h-21.3c-0.1,0-0.3-0.1-0.2-0.6
		c0.1-0.5,0.5-1,1.3-1.1c2.1-0.4,4.4-1.1,6.1-2.9c1.8-1.7,2.9-4.4,2.9-8.4l0-5.1l0-5.1l0-46.8c0,0,0-45.9,0-47.5
		c-14.2,0-39.3,18.7-39.4,18.7c-0.1-0.1-0.1-0.2-0.1-0.2l1.9-10.5l1.6-8.7h47.3h47.3l1.6,8.7L507.3,54.7L507.3,54.7z"/>
</g>
</svg>
