<?xml version="1.0" encoding="utf-8"?>
<!-- Generator: Adobe Illustrator 22.0.0, SVG Export Plug-In . SVG Version: 6.00 Build 0)  -->
<svg version="1.1" id="图层_1" xmlns="http://www.w3.org/2000/svg" xmlns:xlink="http://www.w3.org/1999/xlink" x="0px" y="0px"
	 viewBox="0 0 200 200" style="enable-background:new 0 0 200 200;" xml:space="preserve">
<style type="text/css">
	.st0{fill:#FFFFFF;}
</style>
<path class="st0" d="M187.9,45.5c-5,7.3-11,13.5-18.1,18.6c0.1,1,0.1,2.6,0.1,4.7c0,9.7-1.4,19.3-4.2,29s-7.1,18.9-12.9,27.7
	s-12.6,16.7-20.6,23.5c-8,6.8-17.6,12.2-28.8,16.3s-23.3,6.1-36,6.1c-20.2,0-38.6-5.4-55.4-16.2c2.6,0.3,5.5,0.4,8.7,0.4
	c16.7,0,31.7-5.1,44.8-15.4c-7.8-0.1-14.8-2.5-21-7.2c-6.2-4.7-10.4-10.6-12.7-17.8c2.5,0.4,4.7,0.6,6.8,0.6c3.2,0,6.4-0.4,9.5-1.2
	c-8.3-1.7-15.2-5.9-20.7-12.4c-5.5-6.6-8.2-14.2-8.2-22.9v-0.4c5.1,2.8,10.5,4.4,16.3,4.6c-4.9-3.3-8.8-7.6-11.7-12.8
	c-2.9-5.3-4.4-11-4.4-17.2c0-6.5,1.6-12.6,4.9-18.2c9,11.1,20,20,32.9,26.6s26.7,10.4,41.5,11.1c-0.6-2.8-0.9-5.6-0.9-8.3
	c0-10,3.5-18.5,10.5-25.5c7-7,15.5-10.5,25.5-10.5c10.4,0,19.2,3.8,26.3,11.4c8.1-1.6,15.7-4.5,22.9-8.7c-2.8,8.6-8,15.2-15.8,19.9
	C174.1,50.4,181,48.5,187.9,45.5z"/>
</svg>
