<?xml version="1.0" encoding="utf-8"?>
<!-- Generator: Adobe Illustrator 22.0.0, SVG Export Plug-In . SVG Version: 6.00 Build 0)  -->
<svg version="1.1" id="图层_1" xmlns="http://www.w3.org/2000/svg" xmlns:xlink="http://www.w3.org/1999/xlink" x="0px" y="0px"
	 viewBox="0 0 243 200" style="enable-background:new 0 0 243 200;" xml:space="preserve">
<style type="text/css">
	.st0{fill:#FFFFFF;}
</style>
<path class="st0" d="M242.9,128.2c0-34.7-34.4-63.1-73-63.1c-40.9,0-73.1,28.3-73.1,63.1c0,34.8,32.2,63.1,73.1,63.1
	c8.6,0,17.2-2.2,25.8-4.4l23.6,13.1l-6.5-21.7C230,165.2,242.9,147.8,242.9,128.2z M146.2,117.4c-4.3,0-8.6-4.3-8.6-8.7
	c0-4.3,4.3-8.7,8.6-8.7c6.5,0,10.8,4.4,10.8,8.7C156.9,113.1,152.7,117.4,146.2,117.4z M193.4,117.4c-4.3,0-8.5-4.3-8.5-8.7
	c0-4.3,4.3-8.7,8.5-8.7c6.4,0,10.8,4.4,10.8,8.7C204.2,113.1,199.9,117.4,193.4,117.4z M164.4,60.5c2.8,0,5.5,0.2,8.3,0.5
	C165.3,26,128.2,0,86,0C38.7,0,0,32.6,0,73.9c0,23.9,12.9,43.5,34.4,58.7l-8.6,26.1l30-15.2c10.8,2.1,19.4,4.4,30.1,4.4
	c2.7,0,5.4-0.1,8-0.3c-1.7-5.8-2.6-11.9-2.6-18.2C91.3,91.3,123.6,60.5,164.4,60.5z M118.2,37c6.5,0,10.8,4.3,10.8,10.8
	c0,6.5-4.3,10.9-10.8,10.9c-6.4,0-12.9-4.3-12.9-10.9C105.3,41.3,111.8,37,118.2,37z M58,58.7c-6.4,0-12.9-4.3-12.9-10.9
	C45.1,41.3,51.6,37,58,37s10.7,4.3,10.7,10.8C68.8,54.3,64.5,58.7,58,58.7z"/>
</svg>
